<?xml version="1.0" encoding="iso-8859-1"?>
<!-- Generator: Adobe Illustrator 19.0.0, SVG Export Plug-In . SVG Version: 6.00 Build 0)  -->
<svg version="1.1" id="Layer_1" xmlns="http://www.w3.org/2000/svg" xmlns:xlink="http://www.w3.org/1999/xlink" x="0px" y="0px"
	 viewBox="0 0 512 512" style="enable-background:new 0 0 512 512;" xml:space="preserve">
<path style="fill:#FFDB6F;" d="M427.693,131.509v355.972c0,10.524-11.895,16.64-20.454,10.524l-136.478-97.484
	c-8.986-6.426-21.061-6.426-30.06,0l-136.478,97.484c-8.559,6.115-20.441,0-20.441-10.524V131.509
	C83.783,131.509,427.693,131.509,427.693,131.509z M287.918,280.748l32.18-31.366l-44.476-6.464l-19.885-40.299l-19.898,40.299
	l-44.463,6.464l32.18,31.366l-7.602,44.295l39.782-20.919l39.769,20.919L287.918,280.748z"/>
<g>
	<path style="fill:#F27258;" d="M427.693,27.212v104.298H83.783V27.212c0-7.137,5.779-12.929,12.929-12.929h318.052
		C421.9,14.283,427.693,20.075,427.693,27.212z"/>
	<polygon style="fill:#F27258;" points="320.098,249.382 287.918,280.748 295.507,325.042 255.738,304.123 215.955,325.042 
		223.558,280.748 191.377,249.382 235.84,242.918 255.738,202.618 275.622,242.918 	"/>
</g>
<g>
	<path style="fill:#201F2E;" d="M415.026,0H96.974C82.716,0,71.116,11.6,71.116,25.858v460.267c0,9.73,5.375,18.541,14.028,22.993
		c3.748,1.929,7.806,2.882,11.844,2.882c5.281,0,10.531-1.629,15.016-4.833l136.482-97.485c4.495-3.212,10.535-3.212,15.03,0
		l136.48,97.485v-0.001c7.916,5.658,18.21,6.404,26.861,1.952c8.651-4.451,14.027-13.261,14.027-22.992V25.858
		C440.884,11.6,429.285,0,415.026,0z M415.021,486.121l-136.477-97.483c-6.742-4.816-14.643-7.223-22.545-7.223
		c-7.902,0-15.803,2.407-22.545,7.223L96.974,486.125V143.078h282.071c7.137,0,12.929-5.792,12.929-12.929
		c0-7.15-5.792-12.929-12.929-12.929H96.974V25.858h318.052L415.021,486.121z"/>
	<path style="fill:#201F2E;" d="M256,83.178c6.427,0,11.636-5.223,11.636-11.65c0-6.413-5.209-11.622-11.636-11.622
		c-6.426,0-11.636,5.209-11.636,11.622C244.364,77.955,249.576,83.178,256,83.178z"/>
	<path style="fill:#201F2E;" d="M322.037,236.503l-38.42-5.583l-17.183-34.815c-1.96-3.97-6.005-6.486-10.434-6.486
		c-4.428,0-8.475,2.515-10.434,6.486l-17.183,34.815l-38.42,5.583c-4.384,0.636-8.025,3.707-9.394,7.919
		c-1.369,4.212-0.228,8.837,2.944,11.93l27.802,27.099l-6.563,38.264c-0.749,4.366,1.046,8.777,4.629,11.381
		c2.027,1.473,4.428,2.222,6.841,2.222c1.853,0,3.711-0.442,5.415-1.337l34.363-18.067l34.364,18.067
		c3.921,2.061,8.673,1.717,12.255-0.886c3.583-2.604,5.377-7.015,4.629-11.381l-6.563-38.266l27.801-27.099
		c3.171-3.091,4.313-7.716,2.944-11.928C330.062,240.209,326.42,237.139,322.037,236.503z M280.061,271.054
		c-2.742,2.672-3.994,6.524-3.346,10.299l3.611,21.056l-18.91-9.941c-1.696-0.891-3.555-1.337-5.415-1.337s-3.72,0.446-5.415,1.337
		l-18.909,9.941l3.611-21.056c0.648-3.775-0.604-7.625-3.346-10.3l-15.299-14.911l21.141-3.072c3.791-0.551,7.067-2.931,8.761-6.365
		l9.455-19.158l9.455,19.158c1.695,3.434,4.971,5.814,8.761,6.365l21.141,3.072L280.061,271.054z"/>
	<path style="fill:#201F2E;" d="M195.932,83.178c6.427,0,11.636-5.223,11.636-11.65c0-6.413-5.209-11.622-11.636-11.622
		c-6.426,0-11.636,5.209-11.636,11.622C184.296,77.955,189.508,83.178,195.932,83.178z"/>
	<path style="fill:#201F2E;" d="M316.068,83.178c6.427,0,11.636-5.223,11.636-11.65c0-6.413-5.209-11.622-11.636-11.622
		c-6.426,0-11.636,5.209-11.636,11.622C304.432,77.955,309.644,83.178,316.068,83.178z"/>
</g>
<g>
</g>
<g>
</g>
<g>
</g>
<g>
</g>
<g>
</g>
<g>
</g>
<g>
</g>
<g>
</g>
<g>
</g>
<g>
</g>
<g>
</g>
<g>
</g>
<g>
</g>
<g>
</g>
<g>
</g>
</svg>
