<svg height="512pt" viewBox="0 0 512 512" width="512pt" xmlns="http://www.w3.org/2000/svg"><path d="m502 421.078125c0 44.691406-36.230469 80.921875-80.921875 80.921875s-80.921875-36.230469-80.921875-80.921875 36.230469-80.921875 80.921875-80.921875 80.921875 36.230469 80.921875 80.921875zm0 0" fill="#ff6977"/><path d="m387.480469 18.535156h99.003906c8.417969 0 15.242187 6.824219 15.242187 15.246094v190.867188c0 8.417968-6.824218 15.242187-15.242187 15.242187h-99.003906c-8.417969 0-15.242188-6.824219-15.242188-15.242187v-190.867188c0-8.421875 6.824219-15.246094 15.242188-15.246094zm0 0" fill="#60a4ff"/><path d="m108.960938 10h-39.632813c-.597656 0-1.199219.015625-1.785156.046875-17.324219.90625-31.679688 14.769531-32.171875 32.28125-.492188 17.953125 13.230468 32.816406 30.742187 34.09375l-25.355469.230469c-8.1875.601562-15.539062 4.171875-21.015624 9.632812-6.015626 6.03125-9.742188 14.339844-9.742188 23.527344 0 17.539062 13.554688 32.125 30.757812 33.386719-17.203124 1.261719-30.757812 15.617187-30.757812 33.144531 0 17.539062 13.554688 31.894531 30.757812 33.15625 0 0 9.773438.355469 9.175782.386719-17.328125.890625-31.667969 14.753906-32.160156 32.265625-.523438 18.386718 13.894531 33.527344 31.972656 34.171875.0625.015625 79.851562-.167969 79.851562-.167969v82.105469c0 30.683593 22.003906 44.664062 47.515625 49.90625 14.441407 2.96875 27.953125-8.132813 27.953125-22.875v-45.253907c0-41.898437 72.566406-64.589843 86.894532-110.816406 4.367187-14.09375 17.242187-23.816406 32-23.816406h48.273437v-149.929688h-60.394531c-12.054688 0-23.050782-6.554687-29.121094-16.96875-11.652344-19.992187-28.859375-28.507812-48.058594-28.507812h-35.65625" fill="#ffddcf"/><path d="m448.695312 76.539062c0 11.769532-9.542968 21.316407-21.316406 21.316407-11.773437 0-21.316406-9.546875-21.316406-21.316407 0-11.773437 9.542969-21.316406 21.316406-21.316406 11.773438 0 21.316406 9.542969 21.316406 21.316406zm0 0" fill="#eff3f3"/><path d="m153.960938 20c-4.171876 0-7.988282-2.695312-9.402344-6.609375-1.417969-3.921875-.175782-8.476563 3.058594-11.117187 3.246093-2.65625 7.882812-2.984376 11.480468-.84375 3.5625 2.121093 5.46875 6.375 4.679688 10.445312-.898438 4.648438-5.074219 8.125-9.816406 8.125zm0 0"/><path d="m486.484375 8.535156h-99.003906c-13.917969 0-25.242188 11.324219-25.242188 25.242188v11.699218h-50.398437c-8.316406 0-16.164063-4.601562-20.480469-12.007812-12.761719-21.894531-32.371094-33.46875-56.699219-33.46875h-35.660156c-5.523438 0-10 4.476562-10 10s4.476562 10 10 10h35.660156c17.054688 0 30.316406 7.921875 39.421875 23.542969 7.886719 13.527343 22.355469 21.933593 37.757813 21.933593h50.398437v129.929688h-38.273437c-19.136719 0-35.832032 12.398438-41.554688 30.855469-5.929687 19.132812-24.601562 34.71875-42.660156 49.796875-21.96875 18.335937-44.683594 37.300781-44.683594 63.980468v45.253907c0 4.03125-1.792968 7.808593-4.921875 10.363281-3.101562 2.527344-7.113281 3.515625-11.015625 2.714844-39.53125-8.121094-39.53125-32.199219-39.53125-40.113282v-82.101562c0-2.65625-1.058594-5.203125-2.9375-7.082031-1.875-1.871094-4.414062-2.917969-7.0625-2.917969h-.023437c-26.433594.058594-76.386719.195312-79.609375.167969-12.609375-.523438-22.554688-11.214844-22.191406-23.890625.335937-11.953125 10.195312-21.824219 22.476562-22.550782h19.898438c5.523437 0 10-4.476562 10-10 0-5.523437-4.476563-10-10-10 0 0-28.214844-.347656-28.828126-.367187-11.96875-.964844-21.320312-11.113281-21.320312-23.171875 0-11.996094 9.265625-22.097656 21.152344-23.144531h29.136718c5.523438 0 10-4.476563 10-10 0-5.519531-4.476562-10-10-10h-29.113281c-11.902343-1.035157-21.175781-11.246094-21.175781-23.386719 0-6.207031 2.421875-12.054688 6.800781-16.445312 3.882813-3.871094 8.984375-6.25 14.398438-6.714844l25.003906-.226563c.0625 0 .121094-.003906.183594-.003906h3.570312c5.523438 0 10-4.480469 10-10 0-5.523437-4.476562-10-10-10h-3.488281c-12.199219-1.085937-21.441406-11.476563-21.101562-23.8125.335937-12.011719 10.308593-21.929687 22.691406-22.578125.417968-.019531.84375-.03125 1.269531-.03125h39.632813c5.523437 0 10-4.476562 10-10s-4.476563-10-10-10h-39.632813c-.773437 0-1.546875.0195312-2.308594.0585938-22.722656 1.1914062-41.015625 19.6328122-41.644531 41.9960942-.261719 9.535156 2.558594 18.441406 7.574219 25.746093-7.617188 1.863281-14.644531 5.792969-20.289063 11.421875-8.164062 8.183594-12.660156 19.046875-12.660156 30.589844 0 13.292969 6.046875 25.339844 15.570312 33.363281-9.523437 7.976563-15.570312 19.957031-15.570312 33.167969 0 15.285156 8.085938 28.914062 20.285156 36.621094-7.472656 7.546875-12.191406 17.734375-12.507812 28.902344-.671875 23.664062 17.996094 43.605468 41.613281 44.449218l.003906-.085937c3.171875.097656 12.019531.078125 40.324219.015625l29.878906-.070313v72.082031c0 31.148438 19.710938 52.351563 55.503906 59.707032 2.238282.457031 4.488282.683594 6.71875.683594 7.570313 0 14.957032-2.59375 20.960938-7.492188 7.808594-6.367188 12.285156-15.792969 12.285156-25.863281v-45.253907c0-17.324218 18.214844-32.53125 37.496094-48.628906 20.289062-16.9375 41.269531-34.453125 48.949219-59.226562 3.109375-10.035156 12.132812-16.777344 22.449219-16.777344h38.273437v9.242188c0 13.917968 11.324219 25.242187 25.246094 25.242187h99.003906c13.917969 0 25.242187-11.324219 25.242187-25.242187v-190.871094c0-13.917969-11.324218-25.242188-25.242187-25.242188zm5.242187 216.113282c0 2.890624-2.351562 5.242187-5.242187 5.242187h-99.003906c-2.890625 0-5.246094-2.351563-5.246094-5.242187v-190.871094c0-2.890625 2.355469-5.242188 5.246094-5.242188h99.003906c2.890625 0 5.242187 2.355469 5.242187 5.242188zm0 0"/><path d="m427.378906 107.855469c-17.269531 0-31.316406-14.050781-31.316406-31.316407 0-17.269531 14.046875-31.316406 31.316406-31.316406 17.265625 0 31.3125 14.046875 31.3125 31.316406 0 17.265626-14.046875 31.316407-31.3125 31.316407zm0-42.632813c-6.242187 0-11.316406 5.078125-11.316406 11.316406 0 6.238282 5.074219 11.316407 11.316406 11.316407 6.238282 0 11.3125-5.078125 11.3125-11.316407.003906-6.238281-5.074218-11.316406-11.3125-11.316406zm0 0"/><path d="m424.378906 382.273438c-1.5625 0-2.894531.339843-3.9375.992187l-13.195312 7.996094c-2.457032 1.472656-3.867188 4.03125-3.867188 7.011719 0 3.945312 2.636719 8.203124 6.898438 8.203124.835937 0 2.101562-.183593 3.398437-1v47.300782c0 4.003906 4.03125 6.800781 9.800781 6.800781 5.769532 0 9.800782-2.796875 9.800782-6.800781v-63.601563c0-4.265625-4.621094-6.902343-8.898438-6.902343zm0 0"/><path d="m421.078125 512c-50.132813 0-90.917969-40.785156-90.917969-90.921875 0-50.132813 40.785156-90.917969 90.917969-90.917969s90.921875 40.785156 90.921875 90.917969c0 50.136719-40.785156 90.921875-90.921875 90.921875zm0-161.839844c-39.105469 0-70.917969 31.8125-70.917969 70.917969s31.8125 70.921875 70.917969 70.921875 70.921875-31.816406 70.921875-70.921875-31.816406-70.917969-70.921875-70.917969zm0 0"/></svg>