<svg id="Capa_1" enable-background="new 0 0 512 512" height="512" viewBox="0 0 512 512" width="512" xmlns="http://www.w3.org/2000/svg"><path d="m502 190v252c-62.296 0-452.217 0-492 0v-252z" fill="#ff5a58"/><path d="m472 90v40c-64.398 0-365.397 0-430 0v-40c0-11.05 8.95-20 20-20h390c11.05 0 20 8.95 20 20z" fill="#ffee80"/><path d="m408 30v40h-304v-40c0-11.05 8.95-20 20-20h264c11.05 0 20 8.95 20 20z" fill="#99ebfa"/><g fill="#ecf2f3"><path d="m316 316-90 60v-120z"/><path d="m482 130c-174.703 0-110.991 0-452 0-11.05 0-20 8.95-20 20v40h492v-40c0-11.05-8.95-20-20-20z"/><path d="m10 442v40c0 11.05 8.95 20 20 20h452c11.05 0 20-8.95 20-20v-40c-141.154 0-351.35 0-492 0z"/></g><path d="m482 120v-30c0-16.542-13.458-30-30-30h-34v-30c0-16.542-13.458-30-30-30h-264c-16.542 0-30 13.458-30 30v30h-32c-16.542 0-30 13.458-30 30v30h-2c-16.542 0-30 13.458-30 30v332c0 16.542 13.458 30 30 30h452c16.542 0 30-13.458 30-30v-332c0-16.542-13.458-30-30-30zm-358 332v40h-42v-40zm20 0h42v40h-42zm62 0h40v40h-40zm60 0h40v40h-40zm60 0h42v40h-42zm62 0h42v40h-42zm-368-20v-232h472v232zm103-292v40h-42v-40zm62 0v40h-42v-40zm61 0v40h-41v-40zm61 0v40h-41v-40zm62 0v40h-42v-40zm62 0v40h-42v-40zm61 10v30h-41v-40h31c5.514 0 10 4.486 10 10zm-440-60c0-5.514 4.486-10 10-10h149.001c5.522 0 10-4.477 10-10s-4.478-10-10-10h-97.001v-30c0-5.514 4.486-10 10-10h264c5.514 0 10 4.486 10 10v30h-96.999c-5.522 0-10 4.477-10 10s4.478 10 10 10h150.999c5.514 0 10 4.486 10 10v30h-410zm-22 50h31v40h-41v-30c0-5.514 4.486-10 10-10zm-10 342v-30h42v40h-32c-5.514 0-10-4.486-10-10zm462 10h-32v-40h42v30c0 5.514-4.486 10-10 10z"/><path d="m321.547 307.68-90-60c-3.067-2.045-7.013-2.237-10.266-.497-3.251 1.74-5.281 5.129-5.281 8.817v120c0 3.688 2.03 7.077 5.281 8.817 3.244 1.736 7.191 1.554 10.266-.497l90-60c2.782-1.854 4.453-4.977 4.453-8.32s-1.671-6.466-4.453-8.32zm-85.547 49.635v-82.63l61.973 41.315z"/><circle cx="256" cy="70" r="10"/></svg>