<svg height="512pt" viewBox="0 0 512 512" width="512pt" xmlns="http://www.w3.org/2000/svg"><path d="m502 100h-186v-30c0-16.570312-13.429688-30-30-30h-216v210h156v60h276l-60-105zm0 0" fill="#ff641a"/><path d="m70 502h-60v-492h60zm0 0" fill="#ececf1"/><path d="m510.648438 94.980469c-1.789063-3.082031-5.085938-4.980469-8.648438-4.980469h-176v-20c0-22.054688-17.945312-40-40-40h-206v-20c0-5.523438-4.476562-10-10-10h-60c-5.523438 0-10 4.476562-10 10v195c0 5.523438 4.476562 10 10 10s10-4.476562 10-10v-185h40v472h-40v-197c0-5.523438-4.476562-10-10-10s-10 4.476562-10 10v207c0 5.523438 4.476562 10 10 10h60c5.523438 0 10-4.476562 10-10v-242h136v50c0 5.523438 4.476562 10 10 10h276c3.5625 0 6.859375-1.898438 8.648438-4.980469 1.789062-3.082031 1.800781-6.886719.035156-9.980469l-57.164063-100.039062 57.164063-100.039062c1.765625-3.09375 1.753906-6.898438-.035156-9.980469zm-430.648438-44.980469h206c11.027344 0 20 8.972656 20 20v175.355469c-6.015625-3.488281-12.863281-5.355469-20-5.355469-10.214844 0-197.011719 0-206 0zm156 210h50c11.046875 0 20 8.953125 20 20 0 11.027344-8.972656 20-20 20h-50zm197.316406-59.960938c-1.757812 3.074219-1.757812 6.847657 0 9.921876l51.453125 90.039062h-164.152343c3.417968-5.886719 5.382812-12.71875 5.382812-20v-170h158.769531zm0 0"/><path d="m20 250c0 5.523438-4.476562 10-10 10s-10-4.476562-10-10 4.476562-10 10-10 10 4.476562 10 10zm0 0"/></svg>