<svg height="512pt" viewBox="0 0 512 512.002" width="512pt" xmlns="http://www.w3.org/2000/svg"><path d="m171.84375 90.921875c0 44.691406-36.230469 80.921875-80.921875 80.921875s-80.921875-36.230469-80.921875-80.921875 36.230469-80.921875 80.921875-80.921875 80.921875 36.230469 80.921875 80.921875zm0 0" fill="#ff6977"/><path d="m402.769531 502h39.628907c.601562 0 1.203124-.015625 1.785156-.046875 17.328125-.90625 31.679687-14.769531 32.175781-32.28125.492187-17.953125-13.234375-32.816406-30.742187-34.09375l25.355468-.230469c8.183594-.601562 15.539063-4.171875 21.015625-9.632812 6.015625-6.03125 9.742188-14.339844 9.742188-23.527344 0-17.539062-13.554688-32.125-30.757813-33.386719 17.203125-1.261719 30.757813-15.617187 30.757813-33.144531 0-17.539062-13.554688-31.894531-30.757813-33.15625 0 0-9.777344-.355469-9.175781-.386719 17.324219-.890625 31.664063-14.753906 32.15625-32.265625.523437-18.386718-13.894531-33.527344-31.972656-34.171875-.058594-.015625-79.847657.167969-79.847657.167969v-82.101562c0-30.6875-22.003906-44.667969-47.519531-49.910157-14.4375-2.964843-27.949219 8.136719-27.949219 22.875v45.253907c0 41.898437-72.566406 64.589843-86.894531 110.816406-4.367187 14.09375-17.242187 23.816406-32 23.816406h-48.277343v149.929688h60.398437c12.054687 0 23.050781 6.554687 29.121094 16.96875 11.648437 19.996093 28.859375 28.507812 48.054687 28.507812h35.660156" fill="#ffddcf"/><path d="m124.246094 493.464844h-99c-8.421875 0-15.246094-6.824219-15.246094-15.246094v-190.867188c0-8.417968 6.824219-15.242187 15.246094-15.242187h99c8.421875 0 15.246094 6.824219 15.246094 15.242187v190.867188c0 8.421875-6.824219 15.246094-15.246094 15.246094zm0 0" fill="#60a4ff"/><path d="m105.667969 435.460938c0 11.773437-9.542969 21.316406-21.316407 21.316406-11.773437 0-21.316406-9.542969-21.316406-21.316406 0-11.769532 9.542969-21.316407 21.316406-21.316407 11.773438 0 21.316407 9.546875 21.316407 21.316407zm0 0" fill="#eff3f3"/><path d="m496.15625 368.824219c9.527344-7.976563 15.574219-19.957031 15.574219-33.167969 0-15.285156-8.085938-28.914062-20.289063-36.621094 7.476563-7.546875 12.195313-17.734375 12.507813-28.902344.671875-23.664062-17.992188-43.605468-41.609375-44.449218l-.003906.085937c-3.175782-.097656-12.019532-.078125-40.324219-.015625l-29.878907.070313v-72.082031c0-31.148438-19.710937-52.351563-55.503906-59.707032-9.816406-2.011718-19.902344.46875-27.679687 6.808594-7.808594 6.367188-12.285157 15.792969-12.285157 25.863281v45.253907c0 17.324218-18.214843 32.53125-37.5 48.628906-20.289062 16.9375-41.269531 34.453125-48.945312 59.226562-3.113281 10.035156-12.132812 16.777344-22.453125 16.777344h-38.273437v-9.242188c0-13.917968-11.324219-25.242187-25.246094-25.242187h-99c-13.921875 0-25.246094 11.324219-25.246094 25.242187v190.871094c0 13.917969 11.324219 25.242188 25.246094 25.242188h99c13.921875 0 25.246094-11.324219 25.246094-25.242188v-11.699218h50.398437c8.3125 0 16.164063 4.601562 20.480469 12.007812 12.761718 21.894531 32.367187 33.46875 56.699218 33.46875h35.65625c5.523438 0 10-4.476562 10-10 0-5.519531-4.476562-10-10-10h-35.65625c-17.054687 0-30.316406-7.921875-39.421874-23.539062-7.886719-13.53125-22.351563-21.9375-37.757813-21.9375h-50.398437v-129.929688h38.277343c19.132813 0 35.832031-12.398438 41.550781-30.855469 5.929688-19.128906 24.601563-34.71875 42.660157-49.792969 21.96875-18.339843 44.683593-37.304687 44.683593-63.984374v-45.25c0-4.035157 1.792969-7.8125 4.921876-10.363282 3.101562-2.53125 7.113281-3.519531 11.015624-2.71875 39.53125 8.125 39.53125 32.199219 39.53125 40.113282v82.105468c0 2.65625 1.058594 5.203125 2.9375 7.078125 1.875 1.871094 4.414063 2.921875 7.0625 2.921875h.023438c26.433594-.0625 76.421875-.140625 79.609375-.171875 12.609375.527344 22.554687 11.214844 22.195313 23.894531-.339844 11.953126-10.199219 21.820313-22.480469 22.546876h-19.894531c-5.523438 0-10 4.480468-10 10 0 5.523437 4.476562 10 10 10 0 0 28.210937.347656 28.824218.371093 11.96875.964844 21.320313 11.109375 21.320313 23.171875 0 11.996094-9.265625 22.09375-21.15625 23.140625h-29.136719c-5.523438 0-10 4.476563-10 10 0 5.523438 4.476562 10 10 10h29.117188c11.898437 1.039063 21.175781 11.25 21.175781 23.390625 0 6.207032-2.421875 12.054688-6.804688 16.445313-3.878906 3.871093-8.984375 6.25-14.394531 6.714843l-25.007812.226563c-.058594 0-.121094.003906-.179688.003906h-3.574219c-5.523437 0-10 4.476563-10 10 0 5.523438 4.476563 10 10 10h3.488281c12.199219 1.082031 21.441407 11.472657 21.101563 23.8125-.335937 12.007813-10.308594 21.925781-22.691406 22.574219-.414063.023438-.84375.035156-1.269531.035156h-39.632813c-5.523437 0-10 4.476563-10 10 0 5.519532 4.476563 10 10 10h39.632813c.773437 0 1.546874-.023437 2.308593-.0625 22.726563-1.191406 41.019531-19.632812 41.648438-41.992187.261719-9.535157-2.558594-18.445313-7.574219-25.746094 7.613281-1.867187 14.640625-5.796875 20.285156-11.425781 8.164063-8.183594 12.660156-19.046875 12.660156-30.589844.003907-13.292969-6.042968-25.339844-15.570312-33.363281zm-366.664062 109.398437c0 2.890625-2.351563 5.242188-5.246094 5.242188h-99c-2.894532 0-5.246094-2.355469-5.246094-5.242188v-190.871094c0-2.890624 2.351562-5.242187 5.246094-5.242187h99c2.894531 0 5.246094 2.351563 5.246094 5.242187zm0 0"/><path d="m84.351562 466.777344c-17.269531 0-31.316406-14.046875-31.316406-31.316406 0-17.265626 14.046875-31.316407 31.316406-31.316407 17.265626 0 31.316407 14.050781 31.316407 31.316407 0 17.269531-14.050781 31.316406-31.316407 31.316406zm0-42.632813c-6.242187 0-11.316406 5.078125-11.316406 11.316407 0 6.238281 5.078125 11.316406 11.316406 11.316406 6.238282 0 11.316407-5.078125 11.316407-11.316406 0-6.238282-5.078125-11.316407-11.316407-11.316407zm0 0"/><path d="m94.222656 52.113281c-1.5625 0-2.894531.339844-3.9375.992188l-13.195312 7.996093c-2.457032 1.476563-3.871094 4.03125-3.871094 7.015626 0 3.941406 2.640625 8.199218 6.902344 8.199218.835937 0 2.101562-.183594 3.398437-1v47.304688c0 4.003906 4.03125 6.800781 9.800781 6.800781 5.769532 0 9.800782-2.796875 9.800782-6.800781v-63.605469c0-4.261719-4.621094-6.902344-8.898438-6.902344zm0 0"/><path d="m90.921875 181.839844c-50.132813 0-90.91796875-40.785156-90.91796875-90.917969 0-50.136719 40.78515575-90.921875 90.91796875-90.921875s90.921875 40.785156 90.921875 90.921875c0 50.132813-40.789062 90.917969-90.921875 90.917969zm0-161.839844c-39.105469 0-70.917969 31.816406-70.917969 70.921875s31.8125 70.917969 70.917969 70.917969 70.921875-31.8125 70.921875-70.917969-31.816406-70.921875-70.921875-70.921875zm0 0"/><path d="m357.769531 512c-4.175781 0-8.003906-2.710938-9.414062-6.636719-1.386719-3.867187-.199219-8.335937 2.945312-10.984375 3.296875-2.78125 8.078125-3.132812 11.746094-.863281 3.496094 2.15625 5.335937 6.410156 4.523437 10.433594-.925781 4.613281-5.082031 8.050781-9.800781 8.050781zm0 0"/></svg>