<?xml version="1.0" encoding="UTF-8" standalone="no"?>
<!-- Generator: Adobe Illustrator 19.0.0, SVG Export Plug-In . SVG Version: 6.00 Build 0)  -->

<svg
   xmlns:dc="http://purl.org/dc/elements/1.1/"
   xmlns:cc="http://creativecommons.org/ns#"
   xmlns:rdf="http://www.w3.org/1999/02/22-rdf-syntax-ns#"
   xmlns:svg="http://www.w3.org/2000/svg"
   xmlns="http://www.w3.org/2000/svg"
   xmlns:sodipodi="http://sodipodi.sourceforge.net/DTD/sodipodi-0.dtd"
   xmlns:inkscape="http://www.inkscape.org/namespaces/inkscape"
   version="1.1"
   id="Layer_1"
   x="0px"
   y="0px"
   viewBox="0 0 512 512"
   style="enable-background:new 0 0 512 512;"
   xml:space="preserve"
   inkscape:version="0.91 r13725"
   sodipodi:docname="loading.svg"><metadata
     id="metadata47"><rdf:RDF><cc:Work
         rdf:about=""><dc:format>image/svg+xml</dc:format><dc:type
           rdf:resource="http://purl.org/dc/dcmitype/StillImage" /></cc:Work></rdf:RDF></metadata><defs
     id="defs45" /><sodipodi:namedview
     pagecolor="#ffffff"
     bordercolor="#666666"
     borderopacity="1"
     objecttolerance="10"
     gridtolerance="10"
     guidetolerance="10"
     inkscape:pageopacity="0"
     inkscape:pageshadow="2"
     inkscape:window-width="1053"
     inkscape:window-height="740"
     id="namedview43"
     showgrid="false"
     inkscape:zoom="0.4609375"
     inkscape:cx="-98.711863"
     inkscape:cy="256"
     inkscape:window-x="0"
     inkscape:window-y="-22"
     inkscape:window-maximized="0"
     inkscape:current-layer="g3" /><g
     id="g3"><path
       style="fill:#F4A026;stroke:#201f2e;stroke-opacity:1;stroke-width:20;stroke-miterlimit:4;stroke-dasharray:none;stroke-linejoin:round"
       d="M466.568,287.585c-14.093-3.963-28.728,4.243-32.694,18.335   c-22.358,79.456-95.481,134.95-177.824,134.95c-72.351,0-137.579-42.85-167.512-107.149l1.179-0.681l33.635-13.296l-91.676-39.481   l-18.424,99.222l29.749-18.145C82.581,441.106,164.925,493.88,256.05,493.88c105.982,0,200.089-71.388,228.853-173.603   C488.867,306.186,480.658,291.549,466.568,287.585z"
       id="path5" /><path
       style="fill:#F4A026;stroke-width:20;stroke-miterlimit:4;stroke-dasharray:none;stroke:#201f2e;stroke-opacity:1;stroke-linejoin:round"
       d="M45.626,224.407c14.105,3.917,28.713-4.347,32.627-18.453   c22.032-79.403,95.144-134.859,177.797-134.859c72.993,0,138.537,43.257,168.038,108.056l-1.806,1.043l-33.635,13.296   l91.676,39.481l18.424-99.221l-29.158,17.682c-16.04-32.798-39.607-61.879-68.679-84.238   c-41.775-32.127-91.867-49.109-144.86-49.109S152.966,35.067,111.19,67.194C70.653,98.368,40.814,142.613,27.172,191.78   C23.259,205.887,31.522,220.494,45.626,224.407z"
       id="path7" /></g><g
     id="g13" /><g
     id="g15" /><g
     id="g17" /><g
     id="g19" /><g
     id="g21" /><g
     id="g23" /><g
     id="g25" /><g
     id="g27" /><g
     id="g29" /><g
     id="g31" /><g
     id="g33" /><g
     id="g35" /><g
     id="g37" /><g
     id="g39" /><g
     id="g41" /></svg>