<svg id="Capa_1" enable-background="new 0 0 512 512" height="512" viewBox="0 0 512 512" width="512" xmlns="http://www.w3.org/2000/svg"><path d="m502 352v130c0 11.05-8.95 20-20 20h-452c-11.05 0-20-8.95-20-20v-130z" fill="#6d92ac"/><path d="m502 70v282h-492v-282z" fill="#ff5a58"/><path d="m502 30v40h-492v-40c0-11.05 8.95-20 20-20h452c11.05 0 20 8.95 20 20z" fill="#6d92ac"/><circle cx="316" cy="427" fill="#ffee80" r="30"/><path d="m316 196-90 60v-120z" fill="#ecf2f3"/><path d="m316 467c18.604 0 34.282-12.767 38.734-30h87.266c5.523 0 10-4.477 10-10s-4.477-10-10-10h-87.266c-4.452-17.233-20.13-30-38.734-30s-34.282 12.767-38.734 30h-87.266c-5.523 0-10 4.477-10 10s4.477 10 10 10h87.266c4.452 17.233 20.13 30 38.734 30zm0-60c11.028 0 20 8.972 20 20s-8.972 20-20 20-20-8.972-20-20 8.972-20 20-20z"/><path d="m60 412v30c0 5.523 4.477 10 10 10s10-4.477 10-10v-30c0-5.523-4.477-10-10-10s-10 4.477-10 10z"/><path d="m120 412v30c0 5.523 4.477 10 10 10s10-4.477 10-10v-30c0-5.523-4.477-10-10-10s-10 4.477-10 10z"/><path d="m321.547 187.68-90-60c-3.068-2.046-7.013-2.236-10.266-.497-3.251 1.74-5.281 5.129-5.281 8.817v120c0 3.688 2.03 7.077 5.281 8.817 3.244 1.736 7.189 1.555 10.266-.497l90-60c2.782-1.854 4.453-4.977 4.453-8.32s-1.671-6.466-4.453-8.32zm-85.547 49.635v-82.63l61.972 41.315z"/><circle cx="256" cy="502" r="10"/><path d="m482 0h-452c-16.542 0-30 13.458-30 30v452c0 16.542 13.458 30 30 30h181c5.523 0 10-4.477 10-10s-4.477-10-10-10h-181c-5.514 0-10-4.486-10-10v-120h472v120c0 5.514-4.486 10-10 10h-181c-5.523 0-10 4.477-10 10s4.477 10 10 10h181c16.542 0 30-13.458 30-30v-452c0-16.542-13.458-30-30-30zm-452 20h452c5.514 0 10 4.486 10 10v30h-472v-30c0-5.514 4.486-10 10-10zm-10 322v-262h472v262z"/></svg>